Coordinates
version=1
nRows=8
nColumns=34
inDegrees=yes

Units are S.I. units (second, meters, Newtons, ...)
If the header above contains a line with 'inDegrees', this indicates whether rotational values are in degrees (yes) or radians (no).

endheader
time	pelvis_tilt	pelvis_list	pelvis_rotation	pelvis_tx	pelvis_ty	pelvis_tz	hip_flexion_r	hip_adduction_r	hip_rotation_r	knee_angle_r	ankle_angle_r	subtalar_angle_r	mtp_angle_r	hip_flexion_l	hip_adduction_l	hip_rotation_l	knee_angle_l	ankle_angle_l	subtalar_angle_l	mtp_angle_l	lumbar_extension	lumbar_bending	lumbar_rotation	arm_flex_r	arm_add_r	arm_rot_r	elbow_flex_r	pro_sup_r	arm_flex_l	arm_add_l	arm_rot_l	elbow_flex_l	pro_sup_l
      0.00000000	    -64.29877311	    -90.00000018	    151.92128549	    -13.04024400	      1.27673505	      1.22546559	    -30.00000025	      1.76054912	     39.99999995	     70.36349939	    -36.25506489	     35.00000000	      0.00000000	    -30.00000025	     30.00000025	    -39.99999995	     72.21186384	    -50.00000000	    -35.00000000	      0.00000000	     84.72304588	    -90.00000018	    -83.10437979	    -84.42822761	    -25.41417183	    -54.28000407	    109.29547258	     67.44360740	    -64.62650286	     23.19620812	     31.02223685	     95.26403751	    119.74817918
      0.00416670	    -64.27188193	    -90.00000018	    151.89436900	    -13.02719670	      1.25029754	      1.23083192	    -30.00000025	      3.62832750	     39.99999995	     73.57903070	    -31.34638034	     35.00000000	      0.00000000	    -30.00000025	     30.00000025	    -39.99999995	     70.47547690	    -50.00000000	    -35.00000000	      0.00000000	     84.64043601	    -90.00000018	    -83.02177159	    -87.02187868	    -22.76857877	    -55.63871722	    108.51074808	     66.63441376	    -68.53717139	     20.84508003	     30.32071560	     97.08959583	    119.74817918
      0.00833330	    -64.21874736	    -90.00000018	    151.84121172	    -13.02490197	      1.23080030	      1.22947579	    -30.00000025	      4.73335627	     39.99999995	     73.80434837	    -31.25097959	     35.00000000	      0.00000000	    -30.00000025	     30.00000025	    -39.99999995	     71.15076515	    -50.00000000	    -35.00000000	      0.00000000	     84.47291313	    -90.00000018	    -82.85425013	    -89.54913217	    -21.35910639	    -57.41803145	    108.63100285	     65.76330070	    -70.39757688	     19.22411749	     32.55382292	     98.34546239	    119.74817918
      0.01250000	    -64.08227853	    -90.00000018	    151.70471954	    -13.02552098	      1.22470596	      1.22938293	    -30.00000025	      5.06246591	     39.99999995	     74.31165324	    -31.75343287	     35.00000000	      0.00000000	    -30.00000025	     30.00000025	    -39.99999995	     71.96609085	    -50.00000000	    -35.00000000	      0.00000000	     84.16735786	    -90.00000018	    -82.54869632	    -90.36687378	    -20.43935961	    -58.21742949	    109.12796796	     64.75773163	    -70.55783451	     18.17585553	     33.88279782	     99.41438977	    119.74817918
      0.01666670	    -63.87140705	    -90.00000018	    151.49382586	    -13.02758586	      1.22209023	      1.23051384	    -30.00000025	      4.72628040	     39.95036780	     74.34443379	    -32.64375531	     35.00000000	      0.00000000	    -30.00000025	     30.00000025	    -39.99999995	     72.57421342	    -50.00000000	    -35.00000000	      0.00000000	     84.02020118	    -90.00000018	    -82.40154101	    -90.87733529	    -19.94624458	    -58.85601050	    110.83101218	     63.72578147	    -70.40562481	     17.92350756	     34.90268915	    100.26597944	    119.74817918
      0.02083330	    -63.65275703	    -90.00000018	    151.27515429	    -13.02992766	      1.22197979	      1.23200569	    -30.00000025	      4.12999275	     39.91871780	     74.20596053	    -33.63282181	     35.00000000	      0.00000000	    -30.00000025	     30.00000025	    -39.99999995	     72.98079241	    -50.00000000	    -35.00000000	      0.00000000	     83.93943743	    -90.00000018	    -82.32077859	    -91.15972305	    -19.66617782	    -59.38396456	    113.07495654	     62.62450053	    -70.14142995	     17.89960704	     35.36493442	    101.06693815	    119.74817918
      0.02500000	    -63.45632466	    -90.00000018	    151.07826266	    -13.03180859	      1.22240596	      1.23348223	    -30.00000025	      3.54981210	     39.97414011	     73.99615431	    -34.49513110	     35.00000000	      0.00000000	    -30.00000025	     30.00000025	    -39.99999995	     73.25058068	    -50.00000000	    -35.00000000	      0.00000000	     83.95672360	    -90.00000018	    -82.33809361	    -91.35990584	    -19.64273192	    -59.32859169	    115.86918314	     38.56688721	    -69.91666117	     18.13396153	     35.45809109	    101.55404421	    119.74817918
      0.02916670	    -63.29800763	    -90.00000018	    150.91992896	    -13.03301603	      1.22290362	      1.23466820	    -30.00000025	      2.99601647	     39.99999995	     73.82846375	    -35.17556072	     35.00000000	      0.00000000	    -30.00000025	     30.00000025	    -39.99999995	     73.44114269	    -50.00000000	    -35.00000000	      0.00000000	     83.91247578	    -90.00000018	    -82.29384681	    -91.34342063	    -19.41904075	    -59.82359037	    117.71500594	     38.54882324	    -69.67250444	     18.20901993	     35.52212829	    102.05967473	    119.74817918
